M48
; DRILL file {KiCad 9.0.7} date 2026-05-23T16:10:32+0200
; FORMAT={-:-/ absolute / metric / decimal}
; #@! TF.CreationDate,2026-05-23T16:10:32+02:00
; #@! TF.GenerationSoftware,Kicad,Pcbnew,9.0.7
; #@! TF.FileFunction,Plated,1,2,PTH
FMAT,2
METRIC
; #@! TA.AperFunction,Plated,PTH,ComponentDrill
T1C0.200
; #@! TA.AperFunction,Plated,PTH,ViaDrill
T2C0.300
; #@! TA.AperFunction,Plated,PTH,ComponentDrill
T3C0.600
; #@! TA.AperFunction,Plated,PTH,ComponentDrill
T4C1.000
%
G90
G05
T1
X125.2Y-55.9
X125.2Y-57.3
X125.9Y-55.2
X125.9Y-56.6
X125.9Y-58.0
X126.6Y-55.9
X126.6Y-57.3
X127.3Y-55.2
X127.3Y-56.6
X127.3Y-58.0
X128.0Y-55.9
X128.0Y-57.3
T2
X95.0Y-77.5
X96.0Y-81.5
X96.0Y-82.5
X97.0Y-77.5
X102.5Y-50.5
X103.5Y-67.5
X105.0Y-71.0
X107.5Y-58.0
X107.5Y-71.0
X109.0Y-72.0
X109.0Y-74.5
X109.5Y-58.5
X110.5Y-60.0
X112.0Y-57.0
X113.5Y-60.0
X115.0Y-71.5
X116.0Y-68.5
X117.5Y-53.0
X121.0Y-50.0
X121.0Y-51.0
X121.0Y-58.0
X123.5Y-68.5
X127.0Y-69.5
X127.5Y-81.5
X128.0Y-68.5
X130.0Y-69.0
X130.5Y-73.0
X140.0Y-53.0
X140.0Y-70.0
X140.5Y-54.5
X145.5Y-63.0
T4
X108.0Y-62.96
X108.0Y-65.5
X108.0Y-68.04
X110.54Y-62.96
X110.54Y-65.5
X110.54Y-68.04
X117.38Y-75.0
X117.38Y-77.54
X119.92Y-75.0
X119.92Y-77.54
X122.46Y-75.0
X122.46Y-77.54
X125.0Y-75.0
X125.0Y-77.54
X127.54Y-75.0
X127.54Y-77.54
X142.5Y-72.42
X142.5Y-74.96
X142.5Y-77.5
X145.04Y-72.42
X145.04Y-74.96
X145.04Y-77.5
T3
G00X91.36Y-84.145
M15
G01X91.36Y-85.245
M16
G05
G00X91.36Y-88.475
M15
G01X91.36Y-89.275
M16
G05
G00X100.0Y-84.145
M15
G01X100.0Y-85.245
M16
G05
G00X100.0Y-88.475
M15
G01X100.0Y-89.275
M16
G05
M30
