G04 #@! TF.GenerationSoftware,KiCad,Pcbnew,9.0.7*
G04 #@! TF.CreationDate,2026-05-23T16:10:32+02:00*
G04 #@! TF.ProjectId,esp32-s3,65737033-322d-4733-932e-6b696361645f,rev?*
G04 #@! TF.SameCoordinates,Original*
G04 #@! TF.FileFunction,OtherDrawing,Comment*
%FSLAX46Y46*%
G04 Gerber Fmt 4.6, Leading zero omitted, Abs format (unit mm)*
G04 Created by KiCad (PCBNEW 9.0.7) date 2026-05-23 16:10:32*
%MOMM*%
%LPD*%
G01*
G04 APERTURE LIST*
%ADD10C,0.100000*%
G04 APERTURE END LIST*
D10*
X93965714Y-91126109D02*
X93965714Y-90626109D01*
X93965714Y-90626109D02*
X94156190Y-90626109D01*
X94156190Y-90626109D02*
X94203809Y-90649919D01*
X94203809Y-90649919D02*
X94227619Y-90673728D01*
X94227619Y-90673728D02*
X94251428Y-90721347D01*
X94251428Y-90721347D02*
X94251428Y-90792776D01*
X94251428Y-90792776D02*
X94227619Y-90840395D01*
X94227619Y-90840395D02*
X94203809Y-90864204D01*
X94203809Y-90864204D02*
X94156190Y-90888014D01*
X94156190Y-90888014D02*
X93965714Y-90888014D01*
X94751428Y-91078490D02*
X94727619Y-91102300D01*
X94727619Y-91102300D02*
X94656190Y-91126109D01*
X94656190Y-91126109D02*
X94608571Y-91126109D01*
X94608571Y-91126109D02*
X94537143Y-91102300D01*
X94537143Y-91102300D02*
X94489524Y-91054680D01*
X94489524Y-91054680D02*
X94465714Y-91007061D01*
X94465714Y-91007061D02*
X94441905Y-90911823D01*
X94441905Y-90911823D02*
X94441905Y-90840395D01*
X94441905Y-90840395D02*
X94465714Y-90745157D01*
X94465714Y-90745157D02*
X94489524Y-90697538D01*
X94489524Y-90697538D02*
X94537143Y-90649919D01*
X94537143Y-90649919D02*
X94608571Y-90626109D01*
X94608571Y-90626109D02*
X94656190Y-90626109D01*
X94656190Y-90626109D02*
X94727619Y-90649919D01*
X94727619Y-90649919D02*
X94751428Y-90673728D01*
X95132381Y-90864204D02*
X95203809Y-90888014D01*
X95203809Y-90888014D02*
X95227619Y-90911823D01*
X95227619Y-90911823D02*
X95251428Y-90959442D01*
X95251428Y-90959442D02*
X95251428Y-91030871D01*
X95251428Y-91030871D02*
X95227619Y-91078490D01*
X95227619Y-91078490D02*
X95203809Y-91102300D01*
X95203809Y-91102300D02*
X95156190Y-91126109D01*
X95156190Y-91126109D02*
X94965714Y-91126109D01*
X94965714Y-91126109D02*
X94965714Y-90626109D01*
X94965714Y-90626109D02*
X95132381Y-90626109D01*
X95132381Y-90626109D02*
X95180000Y-90649919D01*
X95180000Y-90649919D02*
X95203809Y-90673728D01*
X95203809Y-90673728D02*
X95227619Y-90721347D01*
X95227619Y-90721347D02*
X95227619Y-90768966D01*
X95227619Y-90768966D02*
X95203809Y-90816585D01*
X95203809Y-90816585D02*
X95180000Y-90840395D01*
X95180000Y-90840395D02*
X95132381Y-90864204D01*
X95132381Y-90864204D02*
X94965714Y-90864204D01*
X95846666Y-90864204D02*
X96013333Y-90864204D01*
X96084761Y-91126109D02*
X95846666Y-91126109D01*
X95846666Y-91126109D02*
X95846666Y-90626109D01*
X95846666Y-90626109D02*
X96084761Y-90626109D01*
X96513333Y-91126109D02*
X96513333Y-90626109D01*
X96513333Y-91102300D02*
X96465714Y-91126109D01*
X96465714Y-91126109D02*
X96370476Y-91126109D01*
X96370476Y-91126109D02*
X96322857Y-91102300D01*
X96322857Y-91102300D02*
X96299047Y-91078490D01*
X96299047Y-91078490D02*
X96275238Y-91030871D01*
X96275238Y-91030871D02*
X96275238Y-90888014D01*
X96275238Y-90888014D02*
X96299047Y-90840395D01*
X96299047Y-90840395D02*
X96322857Y-90816585D01*
X96322857Y-90816585D02*
X96370476Y-90792776D01*
X96370476Y-90792776D02*
X96465714Y-90792776D01*
X96465714Y-90792776D02*
X96513333Y-90816585D01*
X96965714Y-90792776D02*
X96965714Y-91197538D01*
X96965714Y-91197538D02*
X96941904Y-91245157D01*
X96941904Y-91245157D02*
X96918095Y-91268966D01*
X96918095Y-91268966D02*
X96870476Y-91292776D01*
X96870476Y-91292776D02*
X96799047Y-91292776D01*
X96799047Y-91292776D02*
X96751428Y-91268966D01*
X96965714Y-91102300D02*
X96918095Y-91126109D01*
X96918095Y-91126109D02*
X96822857Y-91126109D01*
X96822857Y-91126109D02*
X96775238Y-91102300D01*
X96775238Y-91102300D02*
X96751428Y-91078490D01*
X96751428Y-91078490D02*
X96727619Y-91030871D01*
X96727619Y-91030871D02*
X96727619Y-90888014D01*
X96727619Y-90888014D02*
X96751428Y-90840395D01*
X96751428Y-90840395D02*
X96775238Y-90816585D01*
X96775238Y-90816585D02*
X96822857Y-90792776D01*
X96822857Y-90792776D02*
X96918095Y-90792776D01*
X96918095Y-90792776D02*
X96965714Y-90816585D01*
X97394285Y-91102300D02*
X97346666Y-91126109D01*
X97346666Y-91126109D02*
X97251428Y-91126109D01*
X97251428Y-91126109D02*
X97203809Y-91102300D01*
X97203809Y-91102300D02*
X97180000Y-91054680D01*
X97180000Y-91054680D02*
X97180000Y-90864204D01*
X97180000Y-90864204D02*
X97203809Y-90816585D01*
X97203809Y-90816585D02*
X97251428Y-90792776D01*
X97251428Y-90792776D02*
X97346666Y-90792776D01*
X97346666Y-90792776D02*
X97394285Y-90816585D01*
X97394285Y-90816585D02*
X97418095Y-90864204D01*
X97418095Y-90864204D02*
X97418095Y-90911823D01*
X97418095Y-90911823D02*
X97180000Y-90959442D01*
G04 #@! TO.C,J4*
X100680000Y-91475000D02*
X90680000Y-91475000D01*
G04 #@! TD*
M02*
