G04 #@! TF.GenerationSoftware,KiCad,Pcbnew,9.0.7*
G04 #@! TF.CreationDate,2026-05-23T16:10:32+02:00*
G04 #@! TF.ProjectId,esp32-s3,65737033-322d-4733-932e-6b696361645f,rev?*
G04 #@! TF.SameCoordinates,Original*
G04 #@! TF.FileFunction,Soldermask,Top*
G04 #@! TF.FilePolarity,Negative*
%FSLAX46Y46*%
G04 Gerber Fmt 4.6, Leading zero omitted, Abs format (unit mm)*
G04 Created by KiCad (PCBNEW 9.0.7) date 2026-05-23 16:10:32*
%MOMM*%
%LPD*%
G01*
G04 APERTURE LIST*
G04 Aperture macros list*
%AMRoundRect*
0 Rectangle with rounded corners*
0 $1 Rounding radius*
0 $2 $3 $4 $5 $6 $7 $8 $9 X,Y pos of 4 corners*
0 Add a 4 corners polygon primitive as box body*
4,1,4,$2,$3,$4,$5,$6,$7,$8,$9,$2,$3,0*
0 Add four circle primitives for the rounded corners*
1,1,$1+$1,$2,$3*
1,1,$1+$1,$4,$5*
1,1,$1+$1,$6,$7*
1,1,$1+$1,$8,$9*
0 Add four rect primitives between the rounded corners*
20,1,$1+$1,$2,$3,$4,$5,0*
20,1,$1+$1,$4,$5,$6,$7,0*
20,1,$1+$1,$6,$7,$8,$9,0*
20,1,$1+$1,$8,$9,$2,$3,0*%
G04 Aperture macros list end*
%ADD10C,1.300000*%
%ADD11RoundRect,0.150000X-0.150000X-0.625000X0.150000X-0.625000X0.150000X0.625000X-0.150000X0.625000X0*%
%ADD12RoundRect,0.250000X-0.350000X-0.650000X0.350000X-0.650000X0.350000X0.650000X-0.350000X0.650000X0*%
%ADD13RoundRect,0.160000X0.197500X0.160000X-0.197500X0.160000X-0.197500X-0.160000X0.197500X-0.160000X0*%
%ADD14RoundRect,0.160000X-0.197500X-0.160000X0.197500X-0.160000X0.197500X0.160000X-0.197500X0.160000X0*%
%ADD15RoundRect,0.150000X0.150000X-0.512500X0.150000X0.512500X-0.150000X0.512500X-0.150000X-0.512500X0*%
%ADD16RoundRect,0.250000X-0.850000X-0.350000X0.850000X-0.350000X0.850000X0.350000X-0.850000X0.350000X0*%
%ADD17RoundRect,0.249997X-2.950003X-2.650003X2.950003X-2.650003X2.950003X2.650003X-2.950003X2.650003X0*%
%ADD18R,1.700000X0.900000*%
%ADD19RoundRect,0.062500X-0.117500X-0.062500X0.117500X-0.062500X0.117500X0.062500X-0.117500X0.062500X0*%
%ADD20RoundRect,0.225000X0.250000X-0.225000X0.250000X0.225000X-0.250000X0.225000X-0.250000X-0.225000X0*%
%ADD21RoundRect,0.062500X-0.062500X0.117500X-0.062500X-0.117500X0.062500X-0.117500X0.062500X0.117500X0*%
%ADD22RoundRect,0.250000X0.250000X0.475000X-0.250000X0.475000X-0.250000X-0.475000X0.250000X-0.475000X0*%
%ADD23RoundRect,0.075000X-0.212500X-0.075000X0.212500X-0.075000X0.212500X0.075000X-0.212500X0.075000X0*%
%ADD24RoundRect,0.225000X-0.250000X0.225000X-0.250000X-0.225000X0.250000X-0.225000X0.250000X0.225000X0*%
%ADD25RoundRect,0.218750X0.218750X0.256250X-0.218750X0.256250X-0.218750X-0.256250X0.218750X-0.256250X0*%
%ADD26R,0.900000X1.700000*%
%ADD27RoundRect,0.160000X0.160000X-0.197500X0.160000X0.197500X-0.160000X0.197500X-0.160000X-0.197500X0*%
%ADD28RoundRect,0.243750X-0.456250X0.243750X-0.456250X-0.243750X0.456250X-0.243750X0.456250X0.243750X0*%
%ADD29C,0.600000*%
%ADD30R,3.900000X3.900000*%
%ADD31R,1.500000X0.900000*%
%ADD32R,0.900000X1.500000*%
%ADD33RoundRect,0.225000X-0.225000X-0.250000X0.225000X-0.250000X0.225000X0.250000X-0.225000X0.250000X0*%
%ADD34C,0.650000*%
%ADD35RoundRect,0.150000X-0.150000X-0.425000X0.150000X-0.425000X0.150000X0.425000X-0.150000X0.425000X0*%
%ADD36RoundRect,0.075000X-0.075000X-0.500000X0.075000X-0.500000X0.075000X0.500000X-0.075000X0.500000X0*%
%ADD37O,1.000000X2.100000*%
%ADD38O,1.000000X1.800000*%
%ADD39R,1.700000X1.700000*%
%ADD40C,1.700000*%
%ADD41RoundRect,0.075000X0.075000X-0.212500X0.075000X0.212500X-0.075000X0.212500X-0.075000X-0.212500X0*%
%ADD42RoundRect,0.250000X0.625000X-0.375000X0.625000X0.375000X-0.625000X0.375000X-0.625000X-0.375000X0*%
%ADD43RoundRect,0.218750X-0.381250X0.218750X-0.381250X-0.218750X0.381250X-0.218750X0.381250X0.218750X0*%
G04 APERTURE END LIST*
D10*
G04 #@! TO.C,H4*
X85000000Y-87000000D03*
G04 #@! TD*
G04 #@! TO.C,H3*
X144500000Y-87000000D03*
G04 #@! TD*
G04 #@! TO.C,H2*
X145000000Y-52500000D03*
G04 #@! TD*
G04 #@! TO.C,H1*
X85000000Y-52500000D03*
G04 #@! TD*
D11*
G04 #@! TO.C,J1*
X121700000Y-86625000D03*
X122700000Y-86625000D03*
X123700000Y-86625000D03*
X124700000Y-86625000D03*
D12*
X120400000Y-90500000D03*
X126000000Y-90500000D03*
G04 #@! TD*
D13*
G04 #@! TO.C,R5*
X114455000Y-82355000D03*
X113260000Y-82355000D03*
G04 #@! TD*
D14*
G04 #@! TO.C,R6*
X110260000Y-82355000D03*
X111455000Y-82355000D03*
G04 #@! TD*
D11*
G04 #@! TO.C,J3*
X109760000Y-86855000D03*
X110760000Y-86855000D03*
X111760000Y-86855000D03*
X112760000Y-86855000D03*
D12*
X108460000Y-90730000D03*
X114060000Y-90730000D03*
G04 #@! TD*
D15*
G04 #@! TO.C,U2*
X95100000Y-73237500D03*
X96050000Y-73237500D03*
X97000000Y-73237500D03*
X97000000Y-75512500D03*
X96050000Y-75512500D03*
X95100000Y-75512500D03*
G04 #@! TD*
D16*
G04 #@! TO.C,U3*
X91640000Y-59440000D03*
X91640000Y-61720000D03*
D17*
X97940000Y-61720000D03*
D16*
X91640000Y-64000000D03*
G04 #@! TD*
D18*
G04 #@! TO.C,SW3*
X143000000Y-66400000D03*
X143000000Y-63000000D03*
G04 #@! TD*
D19*
G04 #@! TO.C,D6*
X134840000Y-69500000D03*
X134000000Y-69500000D03*
G04 #@! TD*
D14*
G04 #@! TO.C,R4*
X139902500Y-59000000D03*
X141097500Y-59000000D03*
G04 #@! TD*
D20*
G04 #@! TO.C,C5*
X116000000Y-50450000D03*
X116000000Y-48900000D03*
G04 #@! TD*
D21*
G04 #@! TO.C,D4*
X114000000Y-53920000D03*
X114000000Y-53080000D03*
G04 #@! TD*
D22*
G04 #@! TO.C,C2*
X88590000Y-64000000D03*
X86690000Y-64000000D03*
G04 #@! TD*
D23*
G04 #@! TO.C,C1*
X95537500Y-70950000D03*
X96212500Y-70950000D03*
G04 #@! TD*
D24*
G04 #@! TO.C,C4*
X112000000Y-52500000D03*
X112000000Y-54050000D03*
G04 #@! TD*
D25*
G04 #@! TO.C,D1*
X99715000Y-68000000D03*
X98140000Y-68000000D03*
G04 #@! TD*
D26*
G04 #@! TO.C,SW2*
X135500000Y-74500000D03*
X132100000Y-74500000D03*
G04 #@! TD*
D27*
G04 #@! TO.C,R7*
X116000000Y-53800000D03*
X116000000Y-52605000D03*
G04 #@! TD*
D28*
G04 #@! TO.C,D3*
X87000000Y-78000000D03*
X87000000Y-79875000D03*
G04 #@! TD*
D29*
G04 #@! TO.C,U1*
X128000000Y-57300000D03*
X128000000Y-55900000D03*
X127300000Y-58000000D03*
X127300000Y-56600000D03*
X127300000Y-55200000D03*
X126600000Y-57300000D03*
D30*
X126600000Y-56600000D03*
D29*
X126600000Y-55900000D03*
X125900000Y-58000000D03*
X125900000Y-56600000D03*
X125900000Y-55200000D03*
X125200000Y-57300000D03*
X125200000Y-55900000D03*
D31*
X136850000Y-48880000D03*
X136850000Y-50150000D03*
X136850000Y-51420000D03*
X136850000Y-52690000D03*
X136850000Y-53960000D03*
X136850000Y-55230000D03*
X136850000Y-56500000D03*
X136850000Y-57770000D03*
X136850000Y-59040000D03*
X136850000Y-60310000D03*
X136850000Y-61580000D03*
X136850000Y-62850000D03*
X136850000Y-64120000D03*
X136850000Y-65390000D03*
D32*
X135085000Y-66640000D03*
X133815000Y-66640000D03*
X132545000Y-66640000D03*
X131275000Y-66640000D03*
X130005000Y-66640000D03*
X128735000Y-66640000D03*
X127465000Y-66640000D03*
X126195000Y-66640000D03*
X124925000Y-66640000D03*
X123655000Y-66640000D03*
X122385000Y-66640000D03*
X121115000Y-66640000D03*
D31*
X119350000Y-65390000D03*
X119350000Y-64120000D03*
X119350000Y-62850000D03*
X119350000Y-61580000D03*
X119350000Y-60310000D03*
X119350000Y-59040000D03*
X119350000Y-57770000D03*
X119350000Y-56500000D03*
X119350000Y-55230000D03*
X119350000Y-53960000D03*
X119350000Y-52690000D03*
X119350000Y-51420000D03*
X119350000Y-50150000D03*
X119350000Y-48880000D03*
G04 #@! TD*
D33*
G04 #@! TO.C,C7*
X134000000Y-71500000D03*
X135550000Y-71500000D03*
G04 #@! TD*
D18*
G04 #@! TO.C,SW1*
X109000000Y-56000000D03*
X109000000Y-52600000D03*
G04 #@! TD*
D27*
G04 #@! TO.C,R2*
X97500000Y-80875000D03*
X97500000Y-79680000D03*
G04 #@! TD*
D34*
G04 #@! TO.C,J4*
X92790000Y-85195000D03*
X98570000Y-85195000D03*
D35*
X92480000Y-84120000D03*
X93280000Y-84120000D03*
D36*
X94430000Y-84120000D03*
X95430000Y-84120000D03*
X95930000Y-84120000D03*
X96930000Y-84120000D03*
D35*
X98080000Y-84120000D03*
X98880000Y-84120000D03*
X98880000Y-84120000D03*
X98080000Y-84120000D03*
D36*
X97430000Y-84120000D03*
X96430000Y-84120000D03*
X94930000Y-84120000D03*
X93930000Y-84120000D03*
D35*
X93280000Y-84120000D03*
X92480000Y-84120000D03*
D37*
X91360000Y-84695000D03*
D38*
X91360000Y-88875000D03*
D37*
X100000000Y-84695000D03*
D38*
X100000000Y-88875000D03*
G04 #@! TD*
D39*
G04 #@! TO.C,J6*
X108000000Y-62960000D03*
D40*
X110540000Y-62960000D03*
X108000000Y-65500000D03*
X110540000Y-65500000D03*
X108000000Y-68040000D03*
X110540000Y-68040000D03*
G04 #@! TD*
D27*
G04 #@! TO.C,R1*
X95000000Y-80972500D03*
X95000000Y-79777500D03*
G04 #@! TD*
D41*
G04 #@! TO.C,C6*
X113500000Y-49500000D03*
X113500000Y-48825000D03*
G04 #@! TD*
D14*
G04 #@! TO.C,R3*
X94445000Y-68000000D03*
X95640000Y-68000000D03*
G04 #@! TD*
D39*
G04 #@! TO.C,J2*
X142500000Y-72420000D03*
D40*
X145040000Y-72420000D03*
X142500000Y-74960000D03*
X145040000Y-74960000D03*
X142500000Y-77500000D03*
X145040000Y-77500000D03*
G04 #@! TD*
D21*
G04 #@! TO.C,D5*
X140000000Y-66340000D03*
X140000000Y-65500000D03*
G04 #@! TD*
D39*
G04 #@! TO.C,J5*
X117380000Y-77540000D03*
D40*
X117380000Y-75000000D03*
X119920000Y-77540000D03*
X119920000Y-75000000D03*
X122460000Y-77540000D03*
X122460000Y-75000000D03*
X125000000Y-77540000D03*
X125000000Y-75000000D03*
X127540000Y-77540000D03*
X127540000Y-75000000D03*
G04 #@! TD*
D14*
G04 #@! TO.C,R9*
X131000000Y-71500000D03*
X132195000Y-71500000D03*
G04 #@! TD*
G04 #@! TO.C,R8*
X119902500Y-69500000D03*
X121097500Y-69500000D03*
G04 #@! TD*
D25*
G04 #@! TO.C,D2*
X144575000Y-59000000D03*
X143000000Y-59000000D03*
G04 #@! TD*
D22*
G04 #@! TO.C,C3*
X88590000Y-61500000D03*
X86690000Y-61500000D03*
G04 #@! TD*
D42*
G04 #@! TO.C,F1*
X92500000Y-80775000D03*
X92500000Y-77975000D03*
G04 #@! TD*
D43*
G04 #@! TO.C,FB1*
X89500000Y-77812500D03*
X89500000Y-79937500D03*
G04 #@! TD*
M02*
