<?xml version="1.0" encoding="UTF-8" standalone="no"?>
<!-- Created with Inkscape (http://www.inkscape.org/) -->

<svg
   width="222.61613mm"
   height="269.01202mm"
   viewBox="0 0 222.61613 269.01202"
   version="1.1"
   id="svg1"
   xml:space="preserve"
   xmlns:xlink="http://www.w3.org/1999/xlink"
   xmlns="http://www.w3.org/2000/svg"
   xmlns:svg="http://www.w3.org/2000/svg"><defs
     id="defs1"><linearGradient
       id="swatch11"><stop
         style="stop-color:#000000;stop-opacity:1;"
         offset="0"
         id="stop11" /></linearGradient><linearGradient
       id="swatch3"><stop
         style="stop-color:#000000;stop-opacity:1;"
         offset="0"
         id="stop3" /></linearGradient><linearGradient
       id="swatch2"><stop
         style="stop-color:#000000;stop-opacity:1;"
         offset="0"
         id="stop2" /></linearGradient><linearGradient
       id="swatch12"><stop
         style="stop-color:#000000;stop-opacity:1;"
         offset="0"
         id="stop13" /></linearGradient><linearGradient
       id="swatch8"><stop
         style="stop-color:#000000;stop-opacity:1;"
         offset="0"
         id="stop8" /></linearGradient><linearGradient
       id="swatch7"><stop
         style="stop-color:#000000;stop-opacity:1;"
         offset="0"
         id="stop7" /></linearGradient><linearGradient
       id="swatch1"><stop
         style="stop-color:#000000;stop-opacity:1;"
         offset="0"
         id="stop1" /></linearGradient><linearGradient
       xlink:href="#swatch7"
       id="linearGradient7"
       x1="9.8326111"
       y1="141.49632"
       x2="205.86252"
       y2="141.49632"
       gradientUnits="userSpaceOnUse"
       gradientTransform="rotate(-135.68977,104.94528,131.07112)" /><linearGradient
       xlink:href="#swatch12"
       id="linearGradient13"
       x1="27.217867"
       y1="143.30492"
       x2="73.694214"
       y2="143.30492"
       gradientUnits="userSpaceOnUse"
       gradientTransform="rotate(-135.68977,104.94528,131.07112)" /><linearGradient
       xlink:href="#swatch3"
       id="linearGradient3"
       x1="71.593361"
       y1="78.120491"
       x2="117.45862"
       y2="78.120491"
       gradientUnits="userSpaceOnUse"
       gradientTransform="rotate(-135.68977,104.94528,131.07112)" /></defs><g
     id="layer2"
     style="display:inline"
     transform="translate(4.441633,-3.3632753)"><path
       style="fill:none;fill-opacity:1;stroke:url(#linearGradient7);stroke-width:0.265;stroke-dasharray:none"
       d="m 104.39069,271.05067 2.80955,-18.37454 c 0,0 1.47463,-11.939 0.82893,-17.17517 -0.6457,-5.23617 -1.10323,-6.83639 -1.8166,-8.89358 -0.71337,-2.05722 -4.10673,-2.33418 -6.0797,-3.42277 -1.972959,-1.08859 -0.277721,-3.83701 -0.277721,-3.83701 l 7.678761,-1.7693 1.88128,-21.25108 0.944,-7.27196 c 0,0 1.48942,-6.4299 -2.77965,-5.4657 -4.26907,0.96422 -16.273763,16.51077 -16.273763,16.51077 0,0 -14.030539,-9.70691 -20.804151,-6.52703 -18.02559,8.46211 -21.677358,2.92545 -39.502847,-2.78417 -17.8255,-5.70962 15.861576,-11.07763 10.434054,-13.51072 -5.427515,-2.43311 -47.5314489,-38.83508 -45.6814053,-46.68073 1.4569212,-6.17848 27.2615673,-0.0183 36.7114043,-9.20276 9.449833,-9.18443 17.300723,-3.54486 17.300723,-3.54486 0,0 -6.292679,-24.246439 -5.308604,-33.568235 0.984076,-9.321797 7.225326,-14.004114 11.951621,-23.190748 6.78335,-13.184957 7.1319,-26.853871 17.43943,-40.921598 10.307531,-14.0677213 13.05172,-16.588767 13.05172,-16.588767 0,0 6.880492,14.010092 13.294048,21.04202 6.41355,7.031921 16.98878,12.192797 25.29589,20.938079 8.30711,8.745281 15.33892,26.567885 15.33892,26.567885 0,0 3.28415,10.440782 9.66537,14.626176 6.38121,4.185367 11.78134,-10.958687 15.92902,-12.345742 4.14766,-1.387048 9.84678,-4.839817 13.92602,-6.561315 4.07924,-1.72149 7.0795,-6.20535 9.07262,-4.839933 1.99311,1.365405 0.83117,7.907419 0.96806,13.278657 0.11957,4.691072 0.15539,11.080152 -0.37362,16.804996 -0.529,5.724843 -2.23341,11.933625 -2.94785,20.899895 -0.71445,8.96628 -8.10105,20.25612 -3.31091,25.12662 4.79016,4.87052 34.20748,-5.17552 34.20748,-5.17552 0,0 -7.89215,23.32499 -18.43742,30.72787 -10.54528,7.40288 -22.94818,8.57673 -30.61863,20.18849 -7.67045,11.61176 -10.3469,20.9501 -10.3469,20.9501 0,0 -10.67246,-6.73343 -20.86303,-7.14222 -10.19056,-0.40879 -17.82239,-13.56422 -17.82239,-13.56422 l 0.39212,28.97985 1.90969,25.82247 -6.65251,1.47076 -2.26575,30.84988 z"
       id="path1" /></g><g
     id="layer3"
     style="fill:#1a1a1a"
     transform="translate(4.441633,-3.3632753)"><path
       style="opacity:1;fill:none;fill-opacity:1;stroke:url(#linearGradient13);stroke-width:0.3;stroke-dasharray:none;stroke-opacity:1"
       d="m 134.31313,179.112 18.89015,3.1021 c 0,0 9.11645,-0.91191 11.84462,-4.69652 2.77814,-3.85395 2.90967,-17.91817 2.90967,-17.91817 0,0 9.65507,-5.46836 10.55949,-10.30193 0.58177,-3.10912 -3.93674,-8.63411 -3.93674,-8.63411 l -22.08387,-7.51558 c 0,0 -6.48939,6.27997 -8.22003,8.95786 -1.73066,2.6779 -4.87841,7.23159 -6.80949,9.51441 -6.6075,7.81107 -21.78427,22.74971 -21.78427,22.74971 z"
       id="path8" /><path
       style="opacity:1;fill:none;fill-opacity:1;stroke:#000000;stroke-width:0.3;stroke-dasharray:none;stroke-opacity:1"
       d="m 174.81324,138.41057 c 4.25612,0.50919 3.03403,0.3275 4.84313,-4.87874 1.80911,-5.20624 4.52367,-20.44965 4.52367,-20.44965 l -10.40682,-3.67433 -20.28395,22.30312 c 0,0 17.06785,6.19041 21.32397,6.6996 z"
       id="path13" /><path
       style="opacity:1;fill:none;fill-opacity:1;stroke:#000000;stroke-width:0.3;stroke-dasharray:none;stroke-opacity:1"
       d="m 152.35245,130.76141 20.57588,-22.69581 c 0,0 0.0367,-4.55397 -1.43169,-7.39257 -1.12272,-2.170473 -2.7556,-6.671779 -5.16745,-7.064848 -3.0289,-0.49363 -5.39649,3.190622 -8.4179,3.72825 -3.69478,0.657455 -11.23489,-0.728282 -11.23489,-0.728282 l -3.15064,10.86851 z"
       id="path14" /><path
       style="opacity:1;fill:none;fill-opacity:1;stroke:#000000;stroke-width:0.3;stroke-dasharray:none;stroke-opacity:1"
       d="m 113.92143,173.00824 -7.60611,-38.30791 12.00311,-12.18972 6.0907,-20.49863 -5.74981,-27.710595 c 0,0 -1.9113,-13.918538 -4.91752,-16.329119 -3.00622,-2.410579 -6.0502,-0.445285 -6.0502,-0.445285 0,0 -2.12625,-12.611245 -4.83504,-14.276695 -2.70879,-1.665449 -3.965515,0.565873 -3.965515,0.565873 0,0 -0.317809,-6.180201 -5.248246,-6.660301 -4.930426,-0.480089 -10.400036,11.753803 -10.400036,11.753803 0,0 -7.539146,-3.072893 -10.821061,-2.08434 -3.281924,0.988555 -7.17209,4.8804 -7.17209,4.8804 l -0.836665,15.904797 3.832599,19.103012 c 0,0 -7.29105,-0.888786 -9.413573,0.935066 -2.122523,1.823851 -1.814291,7.10295 -1.814291,7.10295 l 3.936169,25.686354 5.596587,5.80476 2.359128,23.80553 26.206365,10.56521 8.197549,7.55931 z"
       id="path15" /><path
       style="opacity:1;fill:none;fill-opacity:1;stroke:#000000;stroke-width:0.3;stroke-dasharray:none;stroke-opacity:1"
       d="m 151.41556,131.61117 -8.91699,-23.38117 -6.81994,-6.99898 -9.65371,1.4979 -6.65374,21.1507 -11.78011,11.36796 7.48126,37.51894 21.53797,-22.84258 5.76316,-9.0503 z"
       id="path16" /><path
       style="opacity:1;fill:none;fill-opacity:1;stroke:#000000;stroke-width:0.3;stroke-dasharray:none;stroke-opacity:1"
       d="M 93.102564,93.798962 83.087208,50.914819 c 0,0 -7.846702,-3.186934 -10.784719,-2.336675 -2.938016,0.850259 -5.496311,3.980484 -5.496311,3.980484 l -0.71,14.881763 2.462561,11.667363 1.491501,7.887654 z"
       id="path17" /><path
       style="opacity:1;fill:none;fill-opacity:1;stroke:#000000;stroke-width:0.3;stroke-dasharray:none;stroke-opacity:1"
       d="M 94.353682,93.674198 84.472845,51.243553 c 0,0 3.915414,-10.812871 7.966841,-10.468291 4.051439,0.344586 4.924214,5.304509 4.924214,5.304509 0,0 2.597555,-0.03453 4.51475,2.018154 1.91721,2.052687 4.1069,11.176695 4.1069,11.176695 l -9.421015,32.830175 z"
       id="path18" /><path
       style="fill:none;stroke:url(#linearGradient3);stroke-width:0.264583"
       d="m 111.95651,174.29486 -10.15076,-4.84959 -26.625708,5.41424 -28.746269,-1.48764 0.06376,5.29666 c 0,0 0.63714,9.80775 3.612816,12.38509 2.975696,2.57732 6.651536,2.71824 10.612956,1.50221 3.961406,-1.21603 10.480492,-9.49856 10.480492,-9.49856 l 2.953319,-7.24888 1.660281,-0.13077 -3.109774,8.5683 c 0,0 -3.688817,2.52744 -3.91533,4.09623 -0.22652,1.56877 1.339477,1.871 3.859622,3.25859 2.520137,1.38759 11.207866,-1.2848 11.207866,-1.2848 l 15.072761,-5.53713 z"
       id="path2" /><path
       style="fill:none;stroke:#000000;stroke-width:0.264583;stroke-opacity:1"
       d="m 100.43608,168.40142 -24.757467,4.95126 -28.489033,-1.31886 c 0,0 -10.083252,-6.89215 -10.988497,-10.68632 -0.905232,-3.79418 0.438544,-8.63208 0.438544,-8.63208 l 14.409873,-0.55957 16.493399,-1.19568 26.303726,11.53992 z"
       id="path3" /><path
       style="fill:none;stroke:#000000;stroke-width:0.264583;stroke-opacity:1"
       d="M 65.863942,149.54009 36.413943,151.22416 26.5831,144.4735 10.392788,132.137 c 0,0 6.523231,2.55528 10.141531,-0.0868 3.618305,-2.64206 10.82008,-6.64737 10.82008,-6.64737 l 8.729833,-5.51852 19.461807,1.81263 5.389185,5.9178 z"
       id="path4" /><path
       style="fill:none;stroke:#000000;stroke-width:0.264583;stroke-opacity:1"
       d="m 61.707937,144.82615 -14.061612,-8.47237 c 0,0 -22.23782,-6.45839 -25.446902,-1.95871 -3.209076,4.49967 13.901767,13.95751 13.901767,13.95751 z"
       id="path5" /><path
       style="fill:none;stroke:#000000;stroke-width:0.264583;stroke-opacity:1"
       d="m 61.577155,143.16587 c 0,0 -22.464184,-14.88855 -22.704105,-18.52655 -0.239916,-3.63801 7.83465,-2.38112 7.83465,-2.38112 l 11.869367,1.77702 4.492337,5.04228 z"
       id="path6" /><path
       style="fill:none;stroke:#000000;stroke-width:0.264583;stroke-opacity:1"
       d="M 105.87387,133.13604 94.960041,95.246898 98.064735,92.98313 107.08947,61.298298 c 0,0 1.07773,-2.993815 5.31593,-0.166736 4.23821,2.827079 9.60752,40.384368 9.60752,40.384368 l -5.72124,20.05126 z"
       id="path7" /><path
       style="opacity:1;fill:none;stroke:#000000;stroke-width:0.264583;stroke-opacity:1"
       d="M 93.536013,30.984534 82.398419,46.617084 81.012599,36.7237 79.883532,23.399684 80.522715,14.599587 86.102258,7.6773228 Z"
       id="path9" /><path
       style="opacity:1;fill:none;stroke:#000000;stroke-width:0.264583;stroke-opacity:1"
       d="m 80.599633,45.744602 -1.226039,-9.001171 -8.997543,-4.660428 0.148894,12.367165 z"
       id="path10" /><path
       style="opacity:1;fill:none;stroke:#000000;stroke-width:0.264583;stroke-opacity:1"
       d="m 78.975068,34.587388 -0.717993,-10.124958 1.021539,-7.985068 -5.583136,6.624256 -2.138161,8.073018 z"
       id="path11" /></g></svg>
