G04 #@! TF.GenerationSoftware,KiCad,Pcbnew,9.0.7*
G04 #@! TF.CreationDate,2026-05-23T16:10:32+02:00*
G04 #@! TF.ProjectId,esp32-s3,65737033-322d-4733-932e-6b696361645f,rev?*
G04 #@! TF.SameCoordinates,Original*
G04 #@! TF.FileFunction,Legend,Bot*
G04 #@! TF.FilePolarity,Positive*
%FSLAX46Y46*%
G04 Gerber Fmt 4.6, Leading zero omitted, Abs format (unit mm)*
G04 Created by KiCad (PCBNEW 9.0.7) date 2026-05-23 16:10:32*
%MOMM*%
%LPD*%
G01*
G04 APERTURE LIST*
%ADD10C,0.300000*%
%ADD11C,1.300000*%
%ADD12C,0.650000*%
%ADD13O,1.000000X2.100000*%
%ADD14O,1.000000X1.800000*%
%ADD15R,1.700000X1.700000*%
%ADD16C,1.700000*%
G04 APERTURE END LIST*
D10*
X137445489Y-81800828D02*
X137445489Y-82800828D01*
X137445489Y-81943685D02*
X137374060Y-81872257D01*
X137374060Y-81872257D02*
X137231203Y-81800828D01*
X137231203Y-81800828D02*
X137016917Y-81800828D01*
X137016917Y-81800828D02*
X136874060Y-81872257D01*
X136874060Y-81872257D02*
X136802632Y-82015114D01*
X136802632Y-82015114D02*
X136802632Y-82800828D01*
X136159774Y-81443685D02*
X136088346Y-81372257D01*
X136088346Y-81372257D02*
X135945489Y-81300828D01*
X135945489Y-81300828D02*
X135588346Y-81300828D01*
X135588346Y-81300828D02*
X135445489Y-81372257D01*
X135445489Y-81372257D02*
X135374060Y-81443685D01*
X135374060Y-81443685D02*
X135302631Y-81586542D01*
X135302631Y-81586542D02*
X135302631Y-81729400D01*
X135302631Y-81729400D02*
X135374060Y-81943685D01*
X135374060Y-81943685D02*
X136231203Y-82800828D01*
X136231203Y-82800828D02*
X135302631Y-82800828D01*
X134374060Y-81300828D02*
X134231203Y-81300828D01*
X134231203Y-81300828D02*
X134088346Y-81372257D01*
X134088346Y-81372257D02*
X134016918Y-81443685D01*
X134016918Y-81443685D02*
X133945489Y-81586542D01*
X133945489Y-81586542D02*
X133874060Y-81872257D01*
X133874060Y-81872257D02*
X133874060Y-82229400D01*
X133874060Y-82229400D02*
X133945489Y-82515114D01*
X133945489Y-82515114D02*
X134016918Y-82657971D01*
X134016918Y-82657971D02*
X134088346Y-82729400D01*
X134088346Y-82729400D02*
X134231203Y-82800828D01*
X134231203Y-82800828D02*
X134374060Y-82800828D01*
X134374060Y-82800828D02*
X134516918Y-82729400D01*
X134516918Y-82729400D02*
X134588346Y-82657971D01*
X134588346Y-82657971D02*
X134659775Y-82515114D01*
X134659775Y-82515114D02*
X134731203Y-82229400D01*
X134731203Y-82229400D02*
X134731203Y-81872257D01*
X134731203Y-81872257D02*
X134659775Y-81586542D01*
X134659775Y-81586542D02*
X134588346Y-81443685D01*
X134588346Y-81443685D02*
X134516918Y-81372257D01*
X134516918Y-81372257D02*
X134374060Y-81300828D01*
X132588347Y-81800828D02*
X132588347Y-82800828D01*
X132945489Y-81229400D02*
X133302632Y-82300828D01*
X133302632Y-82300828D02*
X132374061Y-82300828D01*
X131588347Y-81943685D02*
X131731204Y-81872257D01*
X131731204Y-81872257D02*
X131802633Y-81800828D01*
X131802633Y-81800828D02*
X131874061Y-81657971D01*
X131874061Y-81657971D02*
X131874061Y-81586542D01*
X131874061Y-81586542D02*
X131802633Y-81443685D01*
X131802633Y-81443685D02*
X131731204Y-81372257D01*
X131731204Y-81372257D02*
X131588347Y-81300828D01*
X131588347Y-81300828D02*
X131302633Y-81300828D01*
X131302633Y-81300828D02*
X131159776Y-81372257D01*
X131159776Y-81372257D02*
X131088347Y-81443685D01*
X131088347Y-81443685D02*
X131016918Y-81586542D01*
X131016918Y-81586542D02*
X131016918Y-81657971D01*
X131016918Y-81657971D02*
X131088347Y-81800828D01*
X131088347Y-81800828D02*
X131159776Y-81872257D01*
X131159776Y-81872257D02*
X131302633Y-81943685D01*
X131302633Y-81943685D02*
X131588347Y-81943685D01*
X131588347Y-81943685D02*
X131731204Y-82015114D01*
X131731204Y-82015114D02*
X131802633Y-82086542D01*
X131802633Y-82086542D02*
X131874061Y-82229400D01*
X131874061Y-82229400D02*
X131874061Y-82515114D01*
X131874061Y-82515114D02*
X131802633Y-82657971D01*
X131802633Y-82657971D02*
X131731204Y-82729400D01*
X131731204Y-82729400D02*
X131588347Y-82800828D01*
X131588347Y-82800828D02*
X131302633Y-82800828D01*
X131302633Y-82800828D02*
X131159776Y-82729400D01*
X131159776Y-82729400D02*
X131088347Y-82657971D01*
X131088347Y-82657971D02*
X131016918Y-82515114D01*
X131016918Y-82515114D02*
X131016918Y-82229400D01*
X131016918Y-82229400D02*
X131088347Y-82086542D01*
X131088347Y-82086542D02*
X131159776Y-82015114D01*
X131159776Y-82015114D02*
X131302633Y-81943685D01*
X128302633Y-82086542D02*
X128374062Y-82015114D01*
X128374062Y-82015114D02*
X128516919Y-81943685D01*
X128516919Y-81943685D02*
X128659776Y-81943685D01*
X128659776Y-81943685D02*
X128802633Y-82015114D01*
X128802633Y-82015114D02*
X128874062Y-82086542D01*
X128874062Y-82086542D02*
X128945490Y-82229400D01*
X128945490Y-82229400D02*
X128945490Y-82372257D01*
X128945490Y-82372257D02*
X128874062Y-82515114D01*
X128874062Y-82515114D02*
X128802633Y-82586542D01*
X128802633Y-82586542D02*
X128659776Y-82657971D01*
X128659776Y-82657971D02*
X128516919Y-82657971D01*
X128516919Y-82657971D02*
X128374062Y-82586542D01*
X128374062Y-82586542D02*
X128302633Y-82515114D01*
X128302633Y-81943685D02*
X128302633Y-82515114D01*
X128302633Y-82515114D02*
X128231205Y-82586542D01*
X128231205Y-82586542D02*
X128159776Y-82586542D01*
X128159776Y-82586542D02*
X128016919Y-82515114D01*
X128016919Y-82515114D02*
X127945490Y-82372257D01*
X127945490Y-82372257D02*
X127945490Y-82015114D01*
X127945490Y-82015114D02*
X128088348Y-81800828D01*
X128088348Y-81800828D02*
X128302633Y-81657971D01*
X128302633Y-81657971D02*
X128588348Y-81586542D01*
X128588348Y-81586542D02*
X128874062Y-81657971D01*
X128874062Y-81657971D02*
X129088348Y-81800828D01*
X129088348Y-81800828D02*
X129231205Y-82015114D01*
X129231205Y-82015114D02*
X129302633Y-82300828D01*
X129302633Y-82300828D02*
X129231205Y-82586542D01*
X129231205Y-82586542D02*
X129088348Y-82800828D01*
X129088348Y-82800828D02*
X128874062Y-82943685D01*
X128874062Y-82943685D02*
X128588348Y-83015114D01*
X128588348Y-83015114D02*
X128302633Y-82943685D01*
X128302633Y-82943685D02*
X128088348Y-82800828D01*
X126231205Y-81443685D02*
X126159777Y-81372257D01*
X126159777Y-81372257D02*
X126016920Y-81300828D01*
X126016920Y-81300828D02*
X125659777Y-81300828D01*
X125659777Y-81300828D02*
X125516920Y-81372257D01*
X125516920Y-81372257D02*
X125445491Y-81443685D01*
X125445491Y-81443685D02*
X125374062Y-81586542D01*
X125374062Y-81586542D02*
X125374062Y-81729400D01*
X125374062Y-81729400D02*
X125445491Y-81943685D01*
X125445491Y-81943685D02*
X126302634Y-82800828D01*
X126302634Y-82800828D02*
X125374062Y-82800828D01*
X124445491Y-81300828D02*
X124302634Y-81300828D01*
X124302634Y-81300828D02*
X124159777Y-81372257D01*
X124159777Y-81372257D02*
X124088349Y-81443685D01*
X124088349Y-81443685D02*
X124016920Y-81586542D01*
X124016920Y-81586542D02*
X123945491Y-81872257D01*
X123945491Y-81872257D02*
X123945491Y-82229400D01*
X123945491Y-82229400D02*
X124016920Y-82515114D01*
X124016920Y-82515114D02*
X124088349Y-82657971D01*
X124088349Y-82657971D02*
X124159777Y-82729400D01*
X124159777Y-82729400D02*
X124302634Y-82800828D01*
X124302634Y-82800828D02*
X124445491Y-82800828D01*
X124445491Y-82800828D02*
X124588349Y-82729400D01*
X124588349Y-82729400D02*
X124659777Y-82657971D01*
X124659777Y-82657971D02*
X124731206Y-82515114D01*
X124731206Y-82515114D02*
X124802634Y-82229400D01*
X124802634Y-82229400D02*
X124802634Y-81872257D01*
X124802634Y-81872257D02*
X124731206Y-81586542D01*
X124731206Y-81586542D02*
X124659777Y-81443685D01*
X124659777Y-81443685D02*
X124588349Y-81372257D01*
X124588349Y-81372257D02*
X124445491Y-81300828D01*
X123374063Y-81443685D02*
X123302635Y-81372257D01*
X123302635Y-81372257D02*
X123159778Y-81300828D01*
X123159778Y-81300828D02*
X122802635Y-81300828D01*
X122802635Y-81300828D02*
X122659778Y-81372257D01*
X122659778Y-81372257D02*
X122588349Y-81443685D01*
X122588349Y-81443685D02*
X122516920Y-81586542D01*
X122516920Y-81586542D02*
X122516920Y-81729400D01*
X122516920Y-81729400D02*
X122588349Y-81943685D01*
X122588349Y-81943685D02*
X123445492Y-82800828D01*
X123445492Y-82800828D02*
X122516920Y-82800828D01*
X121231207Y-81300828D02*
X121516921Y-81300828D01*
X121516921Y-81300828D02*
X121659778Y-81372257D01*
X121659778Y-81372257D02*
X121731207Y-81443685D01*
X121731207Y-81443685D02*
X121874064Y-81657971D01*
X121874064Y-81657971D02*
X121945492Y-81943685D01*
X121945492Y-81943685D02*
X121945492Y-82515114D01*
X121945492Y-82515114D02*
X121874064Y-82657971D01*
X121874064Y-82657971D02*
X121802635Y-82729400D01*
X121802635Y-82729400D02*
X121659778Y-82800828D01*
X121659778Y-82800828D02*
X121374064Y-82800828D01*
X121374064Y-82800828D02*
X121231207Y-82729400D01*
X121231207Y-82729400D02*
X121159778Y-82657971D01*
X121159778Y-82657971D02*
X121088349Y-82515114D01*
X121088349Y-82515114D02*
X121088349Y-82157971D01*
X121088349Y-82157971D02*
X121159778Y-82015114D01*
X121159778Y-82015114D02*
X121231207Y-81943685D01*
X121231207Y-81943685D02*
X121374064Y-81872257D01*
X121374064Y-81872257D02*
X121659778Y-81872257D01*
X121659778Y-81872257D02*
X121802635Y-81943685D01*
X121802635Y-81943685D02*
X121874064Y-82015114D01*
X121874064Y-82015114D02*
X121945492Y-82157971D01*
%LPC*%
D11*
G04 #@! TO.C,H4*
X85000000Y-87000000D03*
G04 #@! TD*
G04 #@! TO.C,H3*
X144500000Y-87000000D03*
G04 #@! TD*
G04 #@! TO.C,H2*
X145000000Y-52500000D03*
G04 #@! TD*
G04 #@! TO.C,H1*
X85000000Y-52500000D03*
G04 #@! TD*
D12*
G04 #@! TO.C,J4*
X92790000Y-85195000D03*
X98570000Y-85195000D03*
D13*
X91360000Y-84695000D03*
D14*
X91360000Y-88875000D03*
D13*
X100000000Y-84695000D03*
D14*
X100000000Y-88875000D03*
G04 #@! TD*
D15*
G04 #@! TO.C,J6*
X108000000Y-62960000D03*
D16*
X110540000Y-62960000D03*
X108000000Y-65500000D03*
X110540000Y-65500000D03*
X108000000Y-68040000D03*
X110540000Y-68040000D03*
G04 #@! TD*
D15*
G04 #@! TO.C,J2*
X142500000Y-72420000D03*
D16*
X145040000Y-72420000D03*
X142500000Y-74960000D03*
X145040000Y-74960000D03*
X142500000Y-77500000D03*
X145040000Y-77500000D03*
G04 #@! TD*
D15*
G04 #@! TO.C,J5*
X117380000Y-77540000D03*
D16*
X117380000Y-75000000D03*
X119920000Y-77540000D03*
X119920000Y-75000000D03*
X122460000Y-77540000D03*
X122460000Y-75000000D03*
X125000000Y-77540000D03*
X125000000Y-75000000D03*
X127540000Y-77540000D03*
X127540000Y-75000000D03*
G04 #@! TD*
%LPD*%
M02*
