%TF.GenerationSoftware,KiCad,Pcbnew,9.0.7*%
%TF.CreationDate,2026-05-23T14:57:37+02:00*%
%TF.ProjectId,esp32-s3,65737033-322d-4733-932e-6b696361645f,rev?*%
%TF.SameCoordinates,Original*%
%TF.FileFunction,Copper,L2,Bot*%
%TF.FilePolarity,Positive*%
%FSLAX46Y46*%
G04 Gerber Fmt 4.6, Leading zero omitted, Abs format (unit mm)*
G04 Created by KiCad (PCBNEW 9.0.7) date 2026-05-23 14:57:37*
%MOMM*%
%LPD*%
G01*
G04 APERTURE LIST*
%TA.AperFunction,HeatsinkPad*%
%ADD10C,0.600000*%
%TD*%
%TA.AperFunction,HeatsinkPad*%
%ADD11O,1.000000X2.100000*%
%TD*%
%TA.AperFunction,HeatsinkPad*%
%ADD12O,1.000000X1.800000*%
%TD*%
%TA.AperFunction,ComponentPad*%
%ADD13R,1.700000X1.700000*%
%TD*%
%TA.AperFunction,ComponentPad*%
%ADD14C,1.700000*%
%TD*%
%TA.AperFunction,ViaPad*%
%ADD15C,0.600000*%
%TD*%
%TA.AperFunction,Conductor*%
%ADD16C,0.200000*%
%TD*%
G04 APERTURE END LIST*
D10*
%TO.P,U1,41,GND*%
%TO.N,GND*%
X128000000Y-57300000D03*
X128000000Y-55900000D03*
X127300000Y-58000000D03*
X127300000Y-56600000D03*
X127300000Y-55200000D03*
X126600000Y-57300000D03*
X126600000Y-55900000D03*
X125900000Y-58000000D03*
X125900000Y-56600000D03*
X125900000Y-55200000D03*
X125200000Y-57300000D03*
X125200000Y-55900000D03*
%TD*%
D11*
%TO.P,J4,S1,SHIELD*%
%TO.N,GND*%
X91360000Y-84695000D03*
D12*
X91360000Y-88875000D03*
D11*
X100000000Y-84695000D03*
D12*
X100000000Y-88875000D03*
%TD*%
D13*
%TO.P,J6,1,Pin_1*%
%TO.N,/GPIO4*%
X108000000Y-62960000D03*
D14*
%TO.P,J6,2,Pin_2*%
%TO.N,+3V3*%
X110540000Y-62960000D03*
%TO.P,J6,3,Pin_3*%
%TO.N,/GPIO5*%
X108000000Y-65500000D03*
%TO.P,J6,4,Pin_4*%
%TO.N,GND*%
X110540000Y-65500000D03*
%TO.P,J6,5,Pin_5*%
%TO.N,/GPIO6*%
X108000000Y-68040000D03*
%TO.P,J6,6,Pin_6*%
%TO.N,/GPIO7*%
X110540000Y-68040000D03*
%TD*%
D13*
%TO.P,J2,1,Pin_1*%
%TO.N,/ESP_EN*%
X142500000Y-72420000D03*
D14*
%TO.P,J2,2,Pin_2*%
%TO.N,+3V3*%
X145040000Y-72420000D03*
%TO.P,J2,3,Pin_3*%
%TO.N,/ESP_TDX*%
X142500000Y-74960000D03*
%TO.P,J2,4,Pin_4*%
%TO.N,GND*%
X145040000Y-74960000D03*
%TO.P,J2,5,Pin_5*%
%TO.N,/ESP_RXT*%
X142500000Y-77500000D03*
%TO.P,J2,6,Pin_6*%
%TO.N,/GPIO0*%
X145040000Y-77500000D03*
%TD*%
D13*
%TO.P,J5,1,Pin_1*%
%TO.N,+3V3*%
X117380000Y-77540000D03*
D14*
%TO.P,J5,2,Pin_2*%
X117380000Y-75000000D03*
%TO.P,J5,3,Pin_3*%
%TO.N,/RESET*%
X119920000Y-77540000D03*
%TO.P,J5,4,Pin_4*%
%TO.N,/CS*%
X119920000Y-75000000D03*
%TO.P,J5,5,Pin_5*%
%TO.N,/MOSI*%
X122460000Y-77540000D03*
%TO.P,J5,6,Pin_6*%
%TO.N,/CLK*%
X122460000Y-75000000D03*
%TO.P,J5,7,Pin_7*%
%TO.N,/MISO*%
X125000000Y-77540000D03*
%TO.P,J5,8,Pin_8*%
%TO.N,/IRQ*%
X125000000Y-75000000D03*
%TO.P,J5,9,Pin_9*%
%TO.N,GND*%
X127540000Y-77540000D03*
%TO.P,J5,10,Pin_10*%
X127540000Y-75000000D03*
%TD*%
D15*
%TO.N,+3V3*%
X130500000Y-73000000D03*
X121000000Y-50000000D03*
X102500000Y-50500000D03*
%TO.N,/IRQ*%
X121000000Y-58000000D03*
X127000000Y-69500000D03*
%TO.N,/RESET*%
X130000000Y-69000000D03*
%TO.N,/GPIO0*%
X145500000Y-63000000D03*
%TO.N,GND*%
X127500000Y-81500000D03*
%TO.N,+3V3*%
X105000000Y-71000000D03*
%TO.N,/SCL*%
X123500000Y-68500000D03*
X115000000Y-71500000D03*
%TO.N,/SDA*%
X109000000Y-74500000D03*
%TO.N,GND*%
X103500000Y-67500000D03*
%TO.N,/GPIO5*%
X113500000Y-60000000D03*
%TO.N,+3V3*%
X107500000Y-58000000D03*
X112000000Y-57000000D03*
%TO.N,/GPIO4*%
X109500000Y-58500000D03*
%TO.N,+3V3*%
X110500000Y-60000000D03*
%TO.N,/ESP_TDX*%
X140000000Y-70000000D03*
%TO.N,/ESP_EN*%
X121000000Y-51000000D03*
%TO.N,/ESP_TDX*%
X140000000Y-53000000D03*
%TO.N,/ESP_RXT*%
X140500000Y-54500000D03*
%TO.N,/CLK*%
X128000000Y-68500000D03*
%TO.N,/SDA*%
X109000000Y-72000000D03*
%TO.N,/GPIO4*%
X117500000Y-53000000D03*
%TO.N,/USB_D+*%
X116000000Y-68500000D03*
X107500000Y-71000000D03*
%TO.N,/D+*%
X96000000Y-82500000D03*
%TO.N,/D-*%
X97000000Y-77500000D03*
%TO.N,/D+*%
X95000000Y-77500000D03*
%TO.N,/D-*%
X96000000Y-81500000D03*
%TD*%
D16*
%TO.N,/SDA*%
X109000000Y-74500000D02*
X109000000Y-72000000D01*
%TO.N,/USB_D+*%
X107500000Y-71000000D02*
X113500000Y-71000000D01*
X113500000Y-71000000D02*
X116000000Y-68500000D01*
%TO.N,/CLK*%
X122460000Y-75000000D02*
X128000000Y-69460000D01*
X128000000Y-69460000D02*
X128000000Y-68500000D01*
%TO.N,+3V3*%
X130500000Y-73000000D02*
X130500000Y-76207760D01*
X130500000Y-76207760D02*
X128016760Y-78691000D01*
X128016760Y-78691000D02*
X118531000Y-78691000D01*
X118531000Y-78691000D02*
X117380000Y-77540000D01*
X144899000Y-57049057D02*
X137849943Y-50000000D01*
X137849943Y-50000000D02*
X121000000Y-50000000D01*
X144899000Y-72279000D02*
X144899000Y-57049057D01*
X145040000Y-72420000D02*
X144899000Y-72279000D01*
X102500000Y-50500000D02*
X102500000Y-53000000D01*
X102500000Y-53000000D02*
X107500000Y-58000000D01*
%TO.N,/IRQ*%
X121000000Y-58000000D02*
X121000000Y-63500000D01*
X121000000Y-63500000D02*
X127000000Y-69500000D01*
%TO.N,/RESET*%
X130000000Y-69000000D02*
X129372240Y-69000000D01*
X129372240Y-69000000D02*
X123611000Y-74761240D01*
X123611000Y-74761240D02*
X123611000Y-75476760D01*
X123611000Y-75476760D02*
X122738760Y-76349000D01*
X122738760Y-76349000D02*
X121111000Y-76349000D01*
X121111000Y-76349000D02*
X119920000Y-77540000D01*
%TO.N,/GPIO0*%
X146191000Y-63691000D02*
X145500000Y-63000000D01*
X146191000Y-76349000D02*
X146191000Y-63691000D01*
X145040000Y-77500000D02*
X146191000Y-76349000D01*
%TO.N,GND*%
X127500000Y-81500000D02*
X140127760Y-81500000D01*
X143889000Y-77023240D02*
X145040000Y-75872240D01*
X140127760Y-81500000D02*
X143889000Y-77738760D01*
X145040000Y-75872240D02*
X145040000Y-74960000D01*
X143889000Y-77738760D02*
X143889000Y-77023240D01*
X127500000Y-81500000D02*
X124305000Y-84695000D01*
X124305000Y-84695000D02*
X100000000Y-84695000D01*
%TO.N,+3V3*%
X105000000Y-71000000D02*
X105000000Y-74000000D01*
X108540000Y-77540000D02*
X117380000Y-77540000D01*
X105000000Y-74000000D02*
X108540000Y-77540000D01*
%TO.N,/SCL*%
X123500000Y-70000000D02*
X122500000Y-71000000D01*
X123500000Y-68500000D02*
X123500000Y-70000000D01*
X122500000Y-71000000D02*
X115500000Y-71000000D01*
X115500000Y-71000000D02*
X115000000Y-71500000D01*
%TO.N,GND*%
X103500000Y-67500000D02*
X100000000Y-71000000D01*
X100000000Y-71000000D02*
X100000000Y-84695000D01*
X104111000Y-66889000D02*
X103500000Y-67500000D01*
X109151000Y-66889000D02*
X104111000Y-66889000D01*
X110540000Y-65500000D02*
X109151000Y-66889000D01*
%TO.N,/GPIO5*%
X113500000Y-61627760D02*
X113500000Y-60000000D01*
X111016760Y-64111000D02*
X113500000Y-61627760D01*
X109389000Y-64111000D02*
X111016760Y-64111000D01*
X108000000Y-65500000D02*
X109389000Y-64111000D01*
%TO.N,+3V3*%
X110500000Y-60000000D02*
X109500000Y-60000000D01*
X109500000Y-60000000D02*
X107500000Y-58000000D01*
X107500000Y-58000000D02*
X108500000Y-57000000D01*
X108500000Y-57000000D02*
X112000000Y-57000000D01*
%TO.N,/GPIO4*%
X109500000Y-58500000D02*
X113000000Y-58500000D01*
X113000000Y-58500000D02*
X117500000Y-54000000D01*
X117500000Y-54000000D02*
X117500000Y-53000000D01*
%TO.N,/ESP_TDX*%
X139899000Y-53101000D02*
X139899000Y-69899000D01*
X140000000Y-53000000D02*
X139899000Y-53101000D01*
%TO.N,/ESP_RXT*%
X140500000Y-54500000D02*
X143889000Y-57889000D01*
X143889000Y-57889000D02*
X143889000Y-76111000D01*
X143889000Y-76111000D02*
X142500000Y-77500000D01*
%TO.N,/ESP_EN*%
X121000000Y-55650057D02*
X121000000Y-51000000D01*
X137769943Y-72420000D02*
X121000000Y-55650057D01*
X142500000Y-72420000D02*
X137769943Y-72420000D01*
%TO.N,/D-*%
X97000000Y-77500000D02*
X97000000Y-80500000D01*
X97000000Y-80500000D02*
X96000000Y-81500000D01*
%TO.N,/D+*%
X95000000Y-77500000D02*
X95000000Y-81500000D01*
X95000000Y-81500000D02*
X96000000Y-82500000D01*
%TD*%
M02*
