%TF.GenerationSoftware,KiCad,Pcbnew,9.0.7*%
%TF.CreationDate,2026-05-23T14:59:02+02:00*%
%TF.ProjectId,esp32-s3,65737033-322d-4733-932e-6b696361645f,rev?*%
%TF.SameCoordinates,Original*%
%TF.FileFunction,Plated,1,2,PTH,Mixed*%
%TF.FilePolarity,Positive*%
%FSLAX46Y46*%
G04 Gerber Fmt 4.6, Leading zero omitted, Abs format (unit mm)*
G04 Created by KiCad (PCBNEW 9.0.7) date 2026-05-23 14:59:02*
%MOMM*%
%LPD*%
G01*
G04 APERTURE LIST*
%TA.AperFunction,ComponentDrill*%
%ADD10C,0.200000*%
%TD*%
%TA.AperFunction,ViaDrill*%
%ADD11C,0.300000*%
%TD*%
G04 aperture for slot hole*
%TA.AperFunction,ComponentDrill*%
%ADD12C,0.600000*%
%TD*%
%TA.AperFunction,ComponentDrill*%
%ADD13C,1.000000*%
%TD*%
G04 APERTURE END LIST*
D10*
%TO.C,U1*%
X125200000Y-55900000D03*
X125200000Y-57300000D03*
X125900000Y-55200000D03*
X125900000Y-56600000D03*
X125900000Y-58000000D03*
X126600000Y-55900000D03*
X126600000Y-57300000D03*
X127300000Y-55200000D03*
X127300000Y-56600000D03*
X127300000Y-58000000D03*
X128000000Y-55900000D03*
X128000000Y-57300000D03*
%TD*%
D11*
X95000000Y-77500000D03*
X96000000Y-81500000D03*
X96000000Y-82500000D03*
X97000000Y-77500000D03*
X102500000Y-50500000D03*
X103500000Y-67500000D03*
X105000000Y-71000000D03*
X107500000Y-58000000D03*
X107500000Y-71000000D03*
X109000000Y-72000000D03*
X109000000Y-74500000D03*
X109500000Y-58500000D03*
X110500000Y-60000000D03*
X112000000Y-57000000D03*
X113500000Y-60000000D03*
X115000000Y-71500000D03*
X116000000Y-68500000D03*
X117500000Y-53000000D03*
X121000000Y-50000000D03*
X121000000Y-51000000D03*
X121000000Y-58000000D03*
X123500000Y-68500000D03*
X127000000Y-69500000D03*
X127500000Y-81500000D03*
X128000000Y-68500000D03*
X130000000Y-69000000D03*
X130500000Y-73000000D03*
X140000000Y-53000000D03*
X140000000Y-70000000D03*
X140500000Y-54500000D03*
X145500000Y-63000000D03*
D12*
%TO.C,J4*%
X91360000Y-85245000D02*
X91360000Y-84145000D01*
X91360000Y-89275000D02*
X91360000Y-88475000D01*
X100000000Y-85245000D02*
X100000000Y-84145000D01*
X100000000Y-89275000D02*
X100000000Y-88475000D01*
D13*
%TO.C,J6*%
X108000000Y-62960000D03*
X108000000Y-65500000D03*
X108000000Y-68040000D03*
X110540000Y-62960000D03*
X110540000Y-65500000D03*
X110540000Y-68040000D03*
%TO.C,J5*%
X117380000Y-75000000D03*
X117380000Y-77540000D03*
X119920000Y-75000000D03*
X119920000Y-77540000D03*
X122460000Y-75000000D03*
X122460000Y-77540000D03*
X125000000Y-75000000D03*
X125000000Y-77540000D03*
X127540000Y-75000000D03*
X127540000Y-77540000D03*
%TO.C,J2*%
X142500000Y-72420000D03*
X142500000Y-74960000D03*
X142500000Y-77500000D03*
X145040000Y-72420000D03*
X145040000Y-74960000D03*
X145040000Y-77500000D03*
M02*
