%TF.GenerationSoftware,KiCad,Pcbnew,9.0.7*%
%TF.CreationDate,2026-05-23T15:28:44+02:00*%
%TF.ProjectId,esp32-s3,65737033-322d-4733-932e-6b696361645f,rev?*%
%TF.SameCoordinates,Original*%
%TF.FileFunction,Component,L1,Top*%
%TF.FilePolarity,Positive*%
%FSLAX46Y46*%
G04 Gerber Fmt 4.6, Leading zero omitted, Abs format (unit mm)*
G04 Created by KiCad (PCBNEW 9.0.7) date 2026-05-23 15:28:44*
%MOMM*%
%LPD*%
G01*
G04 APERTURE LIST*
%TA.AperFunction,ComponentMain*%
%ADD10C,0.300000*%
%TD*%
%TA.AperFunction,ComponentOutline,Courtyard*%
%ADD11C,0.100000*%
%TD*%
%TA.AperFunction,ComponentPin*%
%ADD12P,0.360000X4X0.000000*%
%TD*%
%TA.AperFunction,ComponentPin*%
%ADD13C,0.100000*%
%TD*%
G04 APERTURE END LIST*
D10*
%TO.C,J1*%
%TO.CFtp,JST_SH_SM04B-SRSS-TB_1x04-1MP_P1.00mm_Horizontal*%
%TO.CVal,Conn_01x04*%
%TO.CLbN,Connector_JST*%
%TO.CMnt,SMD*%
%TO.CRot,0*%
X123200000Y-88625000D03*
D11*
X125495000Y-85350000D02*
X125495000Y-86450000D01*
X126695000Y-86450000D01*
X126695000Y-89100000D01*
X127095000Y-89100000D01*
X127095000Y-91900000D01*
X124895000Y-91900000D01*
X124895000Y-91700000D01*
X121505000Y-91700000D01*
X121505000Y-91900000D01*
X119305000Y-91900000D01*
X119305000Y-89100000D01*
X119705000Y-89100000D01*
X119705000Y-86450000D01*
X120905000Y-86450000D01*
X120905000Y-85350000D01*
X125495000Y-85350000D01*
D12*
%TO.P,J1,1,Pin_1*%
X121700000Y-86625000D03*
D13*
%TO.P,J1,2,Pin_2*%
X122700000Y-86625000D03*
%TO.P,J1,3,Pin_3*%
X123700000Y-86625000D03*
%TO.P,J1,4,Pin_4*%
X124700000Y-86625000D03*
%TO.P,J1,MP*%
X120400000Y-90500000D03*
X126000000Y-90500000D03*
%TD*%
D10*
%TO.C,R5*%
%TO.CFtp,R_0402_1005Metric_Pad0.72x0.64mm_HandSolder*%
%TO.CVal,2K2*%
%TO.CLbN,Resistor_SMD*%
%TO.CMnt,SMD*%
%TO.CRot,180*%
X113857500Y-82355000D03*
D11*
X114962500Y-81890000D02*
X114962500Y-82820000D01*
X112752500Y-82820000D01*
X112752500Y-81890000D01*
X114962500Y-81890000D01*
D12*
%TO.P,R5,1*%
X114455000Y-82355000D03*
D13*
%TO.P,R5,2*%
X113260000Y-82355000D03*
%TD*%
D10*
%TO.C,R6*%
%TO.CFtp,R_0402_1005Metric_Pad0.72x0.64mm_HandSolder*%
%TO.CVal,2K2*%
%TO.CLbN,Resistor_SMD*%
%TO.CMnt,SMD*%
%TO.CRot,0*%
X110857500Y-82355000D03*
D11*
X111962500Y-81890000D02*
X111962500Y-82820000D01*
X109752500Y-82820000D01*
X109752500Y-81890000D01*
X111962500Y-81890000D01*
D12*
%TO.P,R6,1*%
X110260000Y-82355000D03*
D13*
%TO.P,R6,2*%
X111455000Y-82355000D03*
%TD*%
D10*
%TO.C,J3*%
%TO.CFtp,JST_SH_SM04B-SRSS-TB_1x04-1MP_P1.00mm_Horizontal*%
%TO.CVal,Conn_01x04*%
%TO.CLbN,Connector_JST*%
%TO.CMnt,SMD*%
%TO.CRot,0*%
X111260000Y-88855000D03*
D11*
X113555000Y-85580000D02*
X113555000Y-86680000D01*
X114755000Y-86680000D01*
X114755000Y-89330000D01*
X115155000Y-89330000D01*
X115155000Y-92130000D01*
X112955000Y-92130000D01*
X112955000Y-91930000D01*
X109565000Y-91930000D01*
X109565000Y-92130000D01*
X107365000Y-92130000D01*
X107365000Y-89330000D01*
X107765000Y-89330000D01*
X107765000Y-86680000D01*
X108965000Y-86680000D01*
X108965000Y-85580000D01*
X113555000Y-85580000D01*
D12*
%TO.P,J3,1,Pin_1*%
X109760000Y-86855000D03*
D13*
%TO.P,J3,2,Pin_2*%
X110760000Y-86855000D03*
%TO.P,J3,3,Pin_3*%
X111760000Y-86855000D03*
%TO.P,J3,4,Pin_4*%
X112760000Y-86855000D03*
%TO.P,J3,MP*%
X108460000Y-90730000D03*
X114060000Y-90730000D03*
%TD*%
D10*
%TO.C,U2*%
%TO.CFtp,SOT-23-6*%
%TO.CVal,USBLC6-2SC6*%
%TO.CLbN,Package_TO_SOT_SMD*%
%TO.CMnt,SMD*%
%TO.CRot,90*%
X96050000Y-74375000D03*
D11*
X97545000Y-72330000D02*
X97545000Y-73330000D01*
X97745000Y-73330000D01*
X97745000Y-75420000D01*
X97545000Y-75420000D01*
X97545000Y-76420000D01*
X94555000Y-76420000D01*
X94555000Y-75420000D01*
X94355000Y-75420000D01*
X94355000Y-73330000D01*
X94555000Y-73330000D01*
X94555000Y-72330000D01*
X97545000Y-72330000D01*
D12*
%TO.P,U2,1,I/O1*%
X95100000Y-75512500D03*
D13*
%TO.P,U2,6,I/O1*%
X95100000Y-73237500D03*
%TO.P,U2,5,VBUS*%
X96050000Y-73237500D03*
%TO.P,U2,4,I/O2*%
X97000000Y-73237500D03*
%TO.P,U2,3,I/O2*%
X97000000Y-75512500D03*
%TO.P,U2,2,GND*%
X96050000Y-75512500D03*
%TD*%
D10*
%TO.C,U3*%
%TO.CFtp,TO-252-3_TabPin2*%
%TO.CVal,LM1117DT-3.3*%
%TO.CLbN,Package_TO_SOT_SMD*%
%TO.CMnt,SMD*%
%TO.CRot,0*%
X96680000Y-61720000D03*
D11*
X101385000Y-58225000D02*
X101385000Y-65215000D01*
X90295000Y-65215000D01*
X90295000Y-58225000D01*
X101385000Y-58225000D01*
D12*
%TO.P,U3,1,GND*%
X91640000Y-59440000D03*
D13*
%TO.P,U3,2,VO*%
X91640000Y-61720000D03*
X97940000Y-61720000D03*
%TO.P,U3,3,VI*%
X91640000Y-64000000D03*
%TD*%
D10*
%TO.C,SW3*%
%TO.CFtp,SW_SPST_B3U-1000P*%
%TO.CVal,BOOT*%
%TO.CLbN,Button_Switch_SMD*%
%TO.CMnt,SMD*%
%TO.CRot,90*%
X143000000Y-64700000D03*
D11*
X144645000Y-62305000D02*
X144645000Y-67095000D01*
X141355000Y-67095000D01*
X141355000Y-62305000D01*
X144645000Y-62305000D01*
D12*
%TO.P,SW3,1,A*%
X143000000Y-66400000D03*
D13*
%TO.P,SW3,2,B*%
X143000000Y-63000000D03*
%TD*%
D10*
%TO.C,D6*%
%TO.CFtp,D_SOD-923*%
%TO.CVal,ESD3.3*%
%TO.CLbN,Diode_SMD*%
%TO.CMnt,SMD*%
%TO.CRot,180*%
X134420000Y-69500000D03*
D11*
X134965000Y-69055000D02*
X134965000Y-69225000D01*
X135165000Y-69225000D01*
X135165000Y-69775000D01*
X134965000Y-69775000D01*
X134965000Y-69945000D01*
X133875000Y-69945000D01*
X133875000Y-69775000D01*
X133675000Y-69775000D01*
X133675000Y-69225000D01*
X133875000Y-69225000D01*
X133875000Y-69055000D01*
X134965000Y-69055000D01*
D12*
%TO.P,D6,1,A1*%
X134840000Y-69500000D03*
D13*
%TO.P,D6,2,A2*%
X134000000Y-69500000D03*
%TD*%
D10*
%TO.C,R4*%
%TO.CFtp,R_0402_1005Metric_Pad0.72x0.64mm_HandSolder*%
%TO.CVal,1K*%
%TO.CLbN,Resistor_SMD*%
%TO.CMnt,SMD*%
%TO.CRot,0*%
X140500000Y-59000000D03*
D11*
X141605000Y-58535000D02*
X141605000Y-59465000D01*
X139395000Y-59465000D01*
X139395000Y-58535000D01*
X141605000Y-58535000D01*
D12*
%TO.P,R4,1*%
X139902500Y-59000000D03*
D13*
%TO.P,R4,2*%
X141097500Y-59000000D03*
%TD*%
D10*
%TO.C,C5*%
%TO.CFtp,C_0603_1608Metric*%
%TO.CVal,10u*%
%TO.CLbN,Capacitor_SMD*%
%TO.CMnt,SMD*%
%TO.CRot,90*%
X116000000Y-49675000D03*
D11*
X116725000Y-48200000D02*
X116725000Y-51150000D01*
X115275000Y-51150000D01*
X115275000Y-48200000D01*
X116725000Y-48200000D01*
D12*
%TO.P,C5,1*%
X116000000Y-50450000D03*
D13*
%TO.P,C5,2*%
X116000000Y-48900000D03*
%TD*%
D10*
%TO.C,D4*%
%TO.CFtp,D_SOD-923*%
%TO.CVal,ESD3.3*%
%TO.CLbN,Diode_SMD*%
%TO.CMnt,SMD*%
%TO.CRot,90*%
X114000000Y-53500000D03*
D11*
X114275000Y-52755000D02*
X114275000Y-52955000D01*
X114445000Y-52955000D01*
X114445000Y-54045000D01*
X114275000Y-54045000D01*
X114275000Y-54245000D01*
X113725000Y-54245000D01*
X113725000Y-54045000D01*
X113555000Y-54045000D01*
X113555000Y-52955000D01*
X113725000Y-52955000D01*
X113725000Y-52755000D01*
X114275000Y-52755000D01*
D12*
%TO.P,D4,1,A1*%
X114000000Y-53920000D03*
D13*
%TO.P,D4,2,A2*%
X114000000Y-53080000D03*
%TD*%
D10*
%TO.C,C2*%
%TO.CFtp,C_0805_2012Metric*%
%TO.CVal,22u*%
%TO.CLbN,Capacitor_SMD*%
%TO.CMnt,SMD*%
%TO.CRot,180*%
X87640000Y-64000000D03*
D11*
X89335000Y-63025000D02*
X89335000Y-64975000D01*
X85945000Y-64975000D01*
X85945000Y-63025000D01*
X89335000Y-63025000D01*
D12*
%TO.P,C2,1*%
X88590000Y-64000000D03*
D13*
%TO.P,C2,2*%
X86690000Y-64000000D03*
%TD*%
D10*
%TO.C,C1*%
%TO.CFtp,C_01005_0402Metric_Pad0.57x0.30mm_HandSolder*%
%TO.CVal,100n*%
%TO.CLbN,Capacitor_SMD*%
%TO.CMnt,SMD*%
%TO.CRot,0*%
X95875000Y-70950000D03*
D11*
X96650000Y-70655000D02*
X96650000Y-71245000D01*
X95100000Y-71245000D01*
X95100000Y-70655000D01*
X96650000Y-70655000D01*
D12*
%TO.P,C1,1*%
X95537500Y-70950000D03*
D13*
%TO.P,C1,2*%
X96212500Y-70950000D03*
%TD*%
D10*
%TO.C,C4*%
%TO.CFtp,C_0603_1608Metric*%
%TO.CVal,1u*%
%TO.CLbN,Capacitor_SMD*%
%TO.CMnt,SMD*%
%TO.CRot,-90*%
X112000000Y-53275000D03*
D11*
X112725000Y-51800000D02*
X112725000Y-54750000D01*
X111275000Y-54750000D01*
X111275000Y-51800000D01*
X112725000Y-51800000D01*
D12*
%TO.P,C4,1*%
X112000000Y-52500000D03*
D13*
%TO.P,C4,2*%
X112000000Y-54050000D03*
%TD*%
D10*
%TO.C,D1*%
%TO.CFtp,LED_0603_1608Metric*%
%TO.CVal,POWER*%
%TO.CLbN,LED_SMD*%
%TO.CMnt,SMD*%
%TO.CRot,180*%
X98927500Y-68000000D03*
D11*
X100402500Y-67275000D02*
X100402500Y-68725000D01*
X97452500Y-68725000D01*
X97452500Y-67275000D01*
X100402500Y-67275000D01*
D12*
%TO.P,D1,1,K*%
X99715000Y-68000000D03*
D13*
%TO.P,D1,2,A*%
X98140000Y-68000000D03*
%TD*%
D10*
%TO.C,SW2*%
%TO.CFtp,SW_SPST_B3U-1000P*%
%TO.CVal,USER_BTN*%
%TO.CLbN,Button_Switch_SMD*%
%TO.CMnt,SMD*%
%TO.CRot,180*%
X133800000Y-74500000D03*
D11*
X136195000Y-72855000D02*
X136195000Y-76145000D01*
X131405000Y-76145000D01*
X131405000Y-72855000D01*
X136195000Y-72855000D01*
D12*
%TO.P,SW2,1,A*%
X135500000Y-74500000D03*
D13*
%TO.P,SW2,2,B*%
X132100000Y-74500000D03*
%TD*%
D10*
%TO.C,R7*%
%TO.CFtp,R_0402_1005Metric_Pad0.72x0.64mm_HandSolder*%
%TO.CVal,10K*%
%TO.CLbN,Resistor_SMD*%
%TO.CMnt,SMD*%
%TO.CRot,90*%
X116000000Y-53202500D03*
D11*
X116465000Y-52097500D02*
X116465000Y-54307500D01*
X115535000Y-54307500D01*
X115535000Y-52097500D01*
X116465000Y-52097500D01*
D12*
%TO.P,R7,1*%
X116000000Y-53800000D03*
D13*
%TO.P,R7,2*%
X116000000Y-52605000D03*
%TD*%
D10*
%TO.C,D3*%
%TO.CFtp,D_0805_2012Metric*%
%TO.CVal,1N5817*%
%TO.CLbN,Diode_SMD*%
%TO.CMnt,SMD*%
%TO.CRot,-90*%
X87000000Y-78937500D03*
D11*
X87945000Y-77262500D02*
X87945000Y-80612500D01*
X86055000Y-80612500D01*
X86055000Y-77262500D01*
X87945000Y-77262500D01*
D12*
%TO.P,D3,1,K*%
X87000000Y-78000000D03*
D13*
%TO.P,D3,2,A*%
X87000000Y-79875000D03*
%TD*%
D10*
%TO.C,U1*%
%TO.CFtp,ESP32-S3-WROOM-1*%
%TO.CVal,ESP32-S3-WROOM-1*%
%TO.CLbN,RF_Module*%
%TO.CMnt,SMD*%
%TO.CRot,0*%
X128100000Y-54140000D03*
D11*
X152095000Y-26395000D02*
X152095000Y-47385000D01*
X137845000Y-47385000D01*
X137845000Y-67585000D01*
X118355000Y-67585000D01*
X118355000Y-47385000D01*
X104105000Y-47385000D01*
X104105000Y-26395000D01*
X152095000Y-26395000D01*
D12*
%TO.P,U1,1,GND*%
X119350000Y-48880000D03*
D13*
%TO.P,U1,41,GND*%
X128000000Y-57300000D03*
X128000000Y-55900000D03*
X127300000Y-58000000D03*
X127300000Y-56600000D03*
X127300000Y-55200000D03*
X126600000Y-57300000D03*
X126600000Y-56600000D03*
X126600000Y-55900000D03*
X125900000Y-58000000D03*
X125900000Y-56600000D03*
X125900000Y-55200000D03*
X125200000Y-57300000D03*
X125200000Y-55900000D03*
%TO.P,U1,40,GND*%
X136850000Y-48880000D03*
%TO.P,U1,39,IO1*%
X136850000Y-50150000D03*
%TO.P,U1,38,IO2*%
X136850000Y-51420000D03*
%TO.P,U1,37,TXD0*%
X136850000Y-52690000D03*
%TO.P,U1,36,RXD0*%
X136850000Y-53960000D03*
%TO.P,U1,35,IO42*%
X136850000Y-55230000D03*
%TO.P,U1,34,IO41*%
X136850000Y-56500000D03*
%TO.P,U1,33,IO40*%
X136850000Y-57770000D03*
%TO.P,U1,32,IO39*%
X136850000Y-59040000D03*
%TO.P,U1,31,IO38*%
X136850000Y-60310000D03*
%TO.P,U1,30,IO37*%
X136850000Y-61580000D03*
%TO.P,U1,29,IO36*%
X136850000Y-62850000D03*
%TO.P,U1,28,IO35*%
X136850000Y-64120000D03*
%TO.P,U1,27,IO0*%
X136850000Y-65390000D03*
%TO.P,U1,26,IO45*%
X135085000Y-66640000D03*
%TO.P,U1,25,IO48*%
X133815000Y-66640000D03*
%TO.P,U1,24,IO47*%
X132545000Y-66640000D03*
%TO.P,U1,23,IO21*%
X131275000Y-66640000D03*
%TO.P,U1,22,IO14*%
X130005000Y-66640000D03*
%TO.P,U1,21,IO13*%
X128735000Y-66640000D03*
%TO.P,U1,20,IO12*%
X127465000Y-66640000D03*
%TO.P,U1,19,IO11*%
X126195000Y-66640000D03*
%TO.P,U1,18,IO10*%
X124925000Y-66640000D03*
%TO.P,U1,17,IO9*%
X123655000Y-66640000D03*
%TO.P,U1,16,IO46*%
X122385000Y-66640000D03*
%TO.P,U1,15,IO3*%
X121115000Y-66640000D03*
%TO.P,U1,14,USB_D+*%
X119350000Y-65390000D03*
%TO.P,U1,13,USB_D-*%
X119350000Y-64120000D03*
%TO.P,U1,12,IO8*%
X119350000Y-62850000D03*
%TO.P,U1,11,IO18*%
X119350000Y-61580000D03*
%TO.P,U1,10,IO17*%
X119350000Y-60310000D03*
%TO.P,U1,9,IO16*%
X119350000Y-59040000D03*
%TO.P,U1,8,IO15*%
X119350000Y-57770000D03*
%TO.P,U1,7,IO7*%
X119350000Y-56500000D03*
%TO.P,U1,6,IO6*%
X119350000Y-55230000D03*
%TO.P,U1,5,IO5*%
X119350000Y-53960000D03*
%TO.P,U1,4,IO4*%
X119350000Y-52690000D03*
%TO.P,U1,3,EN*%
X119350000Y-51420000D03*
%TO.P,U1,2,3V3*%
X119350000Y-50150000D03*
%TD*%
D10*
%TO.C,C7*%
%TO.CFtp,C_0603_1608Metric*%
%TO.CVal,1u*%
%TO.CLbN,Capacitor_SMD*%
%TO.CMnt,SMD*%
%TO.CRot,0*%
X134775000Y-71500000D03*
D11*
X136250000Y-70775000D02*
X136250000Y-72225000D01*
X133300000Y-72225000D01*
X133300000Y-70775000D01*
X136250000Y-70775000D01*
D12*
%TO.P,C7,1*%
X134000000Y-71500000D03*
D13*
%TO.P,C7,2*%
X135550000Y-71500000D03*
%TD*%
D10*
%TO.C,SW1*%
%TO.CFtp,SW_SPST_B3U-1000P*%
%TO.CVal,RESET*%
%TO.CLbN,Button_Switch_SMD*%
%TO.CMnt,SMD*%
%TO.CRot,90*%
X109000000Y-54300000D03*
D11*
X110645000Y-51905000D02*
X110645000Y-56695000D01*
X107355000Y-56695000D01*
X107355000Y-51905000D01*
X110645000Y-51905000D01*
D12*
%TO.P,SW1,1,A*%
X109000000Y-56000000D03*
D13*
%TO.P,SW1,2,B*%
X109000000Y-52600000D03*
%TD*%
D10*
%TO.C,R2*%
%TO.CFtp,R_0402_1005Metric_Pad0.72x0.64mm_HandSolder*%
%TO.CVal,5.1K*%
%TO.CLbN,Resistor_SMD*%
%TO.CMnt,SMD*%
%TO.CRot,90*%
X97500000Y-80277500D03*
D11*
X97965000Y-79172500D02*
X97965000Y-81382500D01*
X97035000Y-81382500D01*
X97035000Y-79172500D01*
X97965000Y-79172500D01*
D12*
%TO.P,R2,1*%
X97500000Y-80875000D03*
D13*
%TO.P,R2,2*%
X97500000Y-79680000D03*
%TD*%
D10*
%TO.C,J4*%
%TO.CFtp,USB_C_Receptacle_GCT_USB4105-xx-A_16P_TopMnt_Horizontal*%
%TO.CVal,USB_C_Receptacle_USB2.0_16P*%
%TO.CLbN,Connector_USB*%
%TO.CMnt,SMD*%
%TO.CRot,0*%
X95680000Y-87800000D03*
D11*
X100995000Y-83045000D02*
X100995000Y-91975000D01*
X90365000Y-91975000D01*
X90365000Y-83045000D01*
X100995000Y-83045000D01*
D12*
%TO.P,J4,A1,GND*%
X92480000Y-84120000D03*
D13*
%TO.P,J4,*%
X92790000Y-85195000D03*
X98570000Y-85195000D03*
%TO.P,J4,A4,VBUS*%
X93280000Y-84120000D03*
%TO.P,J4,A5,CC1*%
X94430000Y-84120000D03*
%TO.P,J4,A6,D+*%
X95430000Y-84120000D03*
%TO.P,J4,A7,D-*%
X95930000Y-84120000D03*
%TO.P,J4,A8,SBU1*%
X96930000Y-84120000D03*
%TO.P,J4,A9,VBUS*%
X98080000Y-84120000D03*
%TO.P,J4,A12,GND*%
X98880000Y-84120000D03*
%TO.P,J4,B1,GND*%
X98880000Y-84120000D03*
%TO.P,J4,B4,VBUS*%
X98080000Y-84120000D03*
%TO.P,J4,B5,CC2*%
X97430000Y-84120000D03*
%TO.P,J4,B6,D+*%
X96430000Y-84120000D03*
%TO.P,J4,B7,D-*%
X94930000Y-84120000D03*
%TO.P,J4,B8,SBU2*%
X93930000Y-84120000D03*
%TO.P,J4,B9,VBUS*%
X93280000Y-84120000D03*
%TO.P,J4,B12,GND*%
X92480000Y-84120000D03*
%TO.P,J4,S1,SHIELD*%
X91360000Y-84695000D03*
X91360000Y-88875000D03*
X100000000Y-84695000D03*
X100000000Y-88875000D03*
%TD*%
D10*
%TO.C,J6*%
%TO.CFtp,PinHeader_2x03_P2.54mm_Vertical*%
%TO.CVal,Conn_02x03_Odd_Even*%
%TO.CLbN,Connector_PinHeader_2.54mm*%
%TO.CMnt,TH*%
%TO.CRot,0*%
X108000000Y-62960000D03*
D11*
X112315000Y-61195000D02*
X112315000Y-69805000D01*
X106235000Y-69805000D01*
X106235000Y-61195000D01*
X112315000Y-61195000D01*
D12*
%TO.P,J6,1,Pin_1*%
X108000000Y-62960000D03*
D13*
%TO.P,J6,2,Pin_2*%
X110540000Y-62960000D03*
%TO.P,J6,3,Pin_3*%
X108000000Y-65500000D03*
%TO.P,J6,4,Pin_4*%
X110540000Y-65500000D03*
%TO.P,J6,5,Pin_5*%
X108000000Y-68040000D03*
%TO.P,J6,6,Pin_6*%
X110540000Y-68040000D03*
%TD*%
D10*
%TO.C,R1*%
%TO.CFtp,R_0402_1005Metric_Pad0.72x0.64mm_HandSolder*%
%TO.CVal,5.1K*%
%TO.CLbN,Resistor_SMD*%
%TO.CMnt,SMD*%
%TO.CRot,90*%
X95000000Y-80375000D03*
D11*
X95465000Y-79270000D02*
X95465000Y-81480000D01*
X94535000Y-81480000D01*
X94535000Y-79270000D01*
X95465000Y-79270000D01*
D12*
%TO.P,R1,1*%
X95000000Y-80972500D03*
D13*
%TO.P,R1,2*%
X95000000Y-79777500D03*
%TD*%
D10*
%TO.C,C6*%
%TO.CFtp,C_01005_0402Metric_Pad0.57x0.30mm_HandSolder*%
%TO.CVal,100n*%
%TO.CLbN,Capacitor_SMD*%
%TO.CMnt,SMD*%
%TO.CRot,90*%
X113500000Y-49162500D03*
D11*
X113795000Y-48387500D02*
X113795000Y-49937500D01*
X113205000Y-49937500D01*
X113205000Y-48387500D01*
X113795000Y-48387500D01*
D12*
%TO.P,C6,1*%
X113500000Y-49500000D03*
D13*
%TO.P,C6,2*%
X113500000Y-48825000D03*
%TD*%
D10*
%TO.C,R3*%
%TO.CFtp,R_0402_1005Metric_Pad0.72x0.64mm_HandSolder*%
%TO.CVal,1K*%
%TO.CLbN,Resistor_SMD*%
%TO.CMnt,SMD*%
%TO.CRot,0*%
X95042500Y-68000000D03*
D11*
X96147500Y-67535000D02*
X96147500Y-68465000D01*
X93937500Y-68465000D01*
X93937500Y-67535000D01*
X96147500Y-67535000D01*
D12*
%TO.P,R3,1*%
X94445000Y-68000000D03*
D13*
%TO.P,R3,2*%
X95640000Y-68000000D03*
%TD*%
D10*
%TO.C,J2*%
%TO.CFtp,PinHeader_2x03_P2.54mm_Vertical*%
%TO.CVal,Conn_02x03_Odd_Even*%
%TO.CLbN,Connector_PinHeader_2.54mm*%
%TO.CMnt,TH*%
%TO.CRot,0*%
X142500000Y-72420000D03*
D11*
X146815000Y-70655000D02*
X146815000Y-79265000D01*
X140735000Y-79265000D01*
X140735000Y-70655000D01*
X146815000Y-70655000D01*
D12*
%TO.P,J2,1,Pin_1*%
X142500000Y-72420000D03*
D13*
%TO.P,J2,2,Pin_2*%
X145040000Y-72420000D03*
%TO.P,J2,3,Pin_3*%
X142500000Y-74960000D03*
%TO.P,J2,4,Pin_4*%
X145040000Y-74960000D03*
%TO.P,J2,5,Pin_5*%
X142500000Y-77500000D03*
%TO.P,J2,6,Pin_6*%
X145040000Y-77500000D03*
%TD*%
D10*
%TO.C,D5*%
%TO.CFtp,D_SOD-923*%
%TO.CVal,ESD3.3*%
%TO.CLbN,Diode_SMD*%
%TO.CMnt,SMD*%
%TO.CRot,90*%
X140000000Y-65920000D03*
D11*
X140275000Y-65175000D02*
X140275000Y-65375000D01*
X140445000Y-65375000D01*
X140445000Y-66465000D01*
X140275000Y-66465000D01*
X140275000Y-66665000D01*
X139725000Y-66665000D01*
X139725000Y-66465000D01*
X139555000Y-66465000D01*
X139555000Y-65375000D01*
X139725000Y-65375000D01*
X139725000Y-65175000D01*
X140275000Y-65175000D01*
D12*
%TO.P,D5,1,A1*%
X140000000Y-66340000D03*
D13*
%TO.P,D5,2,A2*%
X140000000Y-65500000D03*
%TD*%
D10*
%TO.C,J5*%
%TO.CFtp,PinHeader_2x05_P2.54mm_Vertical*%
%TO.CVal,PIN 02x05*%
%TO.CLbN,Connector_PinHeader_2.54mm*%
%TO.CMnt,TH*%
%TO.CRot,90*%
X117380000Y-77540000D03*
D11*
X129305000Y-73225000D02*
X129305000Y-79305000D01*
X115615000Y-79305000D01*
X115615000Y-73225000D01*
X129305000Y-73225000D01*
D12*
%TO.P,J5,1,Pin_1*%
X117380000Y-77540000D03*
D13*
%TO.P,J5,2,Pin_2*%
X117380000Y-75000000D03*
%TO.P,J5,3,Pin_3*%
X119920000Y-77540000D03*
%TO.P,J5,4,Pin_4*%
X119920000Y-75000000D03*
%TO.P,J5,5,Pin_5*%
X122460000Y-77540000D03*
%TO.P,J5,6,Pin_6*%
X122460000Y-75000000D03*
%TO.P,J5,7,Pin_7*%
X125000000Y-77540000D03*
%TO.P,J5,8,Pin_8*%
X125000000Y-75000000D03*
%TO.P,J5,9,Pin_9*%
X127540000Y-77540000D03*
%TO.P,J5,10,Pin_10*%
X127540000Y-75000000D03*
%TD*%
D10*
%TO.C,R9*%
%TO.CFtp,R_0402_1005Metric_Pad0.72x0.64mm_HandSolder*%
%TO.CVal,10K*%
%TO.CLbN,Resistor_SMD*%
%TO.CMnt,SMD*%
%TO.CRot,0*%
X131597500Y-71500000D03*
D11*
X132702500Y-71035000D02*
X132702500Y-71965000D01*
X130492500Y-71965000D01*
X130492500Y-71035000D01*
X132702500Y-71035000D01*
D12*
%TO.P,R9,1*%
X131000000Y-71500000D03*
D13*
%TO.P,R9,2*%
X132195000Y-71500000D03*
%TD*%
D10*
%TO.C,R8*%
%TO.CFtp,R_0402_1005Metric_Pad0.72x0.64mm_HandSolder*%
%TO.CVal,10K*%
%TO.CLbN,Resistor_SMD*%
%TO.CMnt,SMD*%
%TO.CRot,0*%
X120500000Y-69500000D03*
D11*
X121605000Y-69035000D02*
X121605000Y-69965000D01*
X119395000Y-69965000D01*
X119395000Y-69035000D01*
X121605000Y-69035000D01*
D12*
%TO.P,R8,1*%
X119902500Y-69500000D03*
D13*
%TO.P,R8,2*%
X121097500Y-69500000D03*
%TD*%
D10*
%TO.C,D2*%
%TO.CFtp,LED_0603_1608Metric*%
%TO.CVal,GREEN*%
%TO.CLbN,LED_SMD*%
%TO.CMnt,SMD*%
%TO.CRot,180*%
X143787500Y-59000000D03*
D11*
X145262500Y-58275000D02*
X145262500Y-59725000D01*
X142312500Y-59725000D01*
X142312500Y-58275000D01*
X145262500Y-58275000D01*
D12*
%TO.P,D2,1,K*%
X144575000Y-59000000D03*
D13*
%TO.P,D2,2,A*%
X143000000Y-59000000D03*
%TD*%
D10*
%TO.C,C3*%
%TO.CFtp,C_0805_2012Metric*%
%TO.CVal,22u*%
%TO.CLbN,Capacitor_SMD*%
%TO.CMnt,SMD*%
%TO.CRot,180*%
X87640000Y-61500000D03*
D11*
X89335000Y-60525000D02*
X89335000Y-62475000D01*
X85945000Y-62475000D01*
X85945000Y-60525000D01*
X89335000Y-60525000D01*
D12*
%TO.P,C3,1*%
X88590000Y-61500000D03*
D13*
%TO.P,C3,2*%
X86690000Y-61500000D03*
%TD*%
D10*
%TO.C,F1*%
%TO.CFtp,Fuse_1206_3216Metric*%
%TO.CVal,Polyfuse 1A*%
%TO.CLbN,Fuse*%
%TO.CMnt,SMD*%
%TO.CRot,90*%
X92500000Y-79375000D03*
D11*
X93625000Y-77100000D02*
X93625000Y-81650000D01*
X91375000Y-81650000D01*
X91375000Y-77100000D01*
X93625000Y-77100000D01*
D12*
%TO.P,F1,1*%
X92500000Y-80775000D03*
D13*
%TO.P,F1,2*%
X92500000Y-77975000D03*
%TD*%
D10*
%TO.C,FB1*%
%TO.CFtp,L_0805_2012Metric*%
%TO.CVal,BLM21PG220*%
%TO.CLbN,Inductor_SMD*%
%TO.CMnt,SMD*%
%TO.CRot,-90*%
X89500000Y-78875000D03*
D11*
X90345000Y-77130000D02*
X90345000Y-80620000D01*
X88655000Y-80620000D01*
X88655000Y-77130000D01*
X90345000Y-77130000D01*
D12*
%TO.P,FB1,1*%
X89500000Y-77812500D03*
D13*
%TO.P,FB1,2*%
X89500000Y-79937500D03*
%TD*%
M02*
